<?xml version="1.0" encoding="UTF-8"?>
<svg xmlns="http://www.w3.org/2000/svg" viewBox="0 0 48 48" width="48px" height="48px">
  <path fill="#0dd3ff" d="M24.5,8c-1.1,0-2,0.9-2,2v11l-9.4,9.4c-0.9-1.1-1.6-2.2-1.9-3.4H5.9c0.5,2.4,1.7,4.6,3.5,6.4l-3.1,3.1 l1.4,1.4l3.1-3.1c2.9,2.9,7.1,4.2,11.2,3.5V44h4v-5.7c4.1,0.7,8.3-0.6,11.2-3.5l3.1,3.1l1.4-1.4l-3.1-3.1c1.8-1.8,3-4.1,3.5-6.4 h-5.3c-0.3,1.2-0.9,2.3-1.9,3.4L24.5,21V10C24.5,8.9,25.6,8,24.5,8"/>
  <path fill="#3ddc84" d="M34.5,10c-1.8-0.2-3.5,0.7-4.4,2.3l-0.5,0.9l-0.5-0.9c-0.5-0.8-1.2-1.5-2.1-1.9V15l5.4,9.4 c0.6-0.3,1.1-0.7,1.5-1.1l3.1-3.1c2.5-2.5,2.5-6.6,0-9.1C36.3,10.4,35.4,10.1,34.5,10"/>
  <path fill="#4caf50" d="M12.5,17.5c-1.1,0-2.2,0.3-3.1,1c-2.5,2.5-2.5,6.6,0,9.1l3.1,3.1c0.5,0.5,1,0.8,1.5,1.1l7-7H12.5V17.5z"/>
  <path fill="#ffd43b" d="M38.5,17.5h-8.7l7.7,7.7c0.9-1.1,1.5-2.2,1.9-3.4C39.8,20.3,39.4,18.8,38.5,17.5"/>
  <path fill="#f91b00" d="M24.5,27.8l-8.3,8.3c1.1,0.6,2.3,0.9,3.5,0.9c0.4,0,0.9,0,1.3-0.1c1.8-0.3,3.4-1.1,4.8-2.5 c0.4-0.4,0.7-0.8,1-1.2C26.5,32,25.6,30.1,24.5,27.8"/>
  <path fill="#f9a600" d="M38.5,17.5c-0.5-0.7-1.1-1.4-1.9-1.9c-0.6-0.5-1.2-0.8-1.9-1.1c-0.4-0.2-0.9-0.3-1.3-0.3L27.9,22L38.5,17.5z"/>
</svg>
