<?xml version="1.0" encoding="UTF-8"?>
<svg xmlns="http://www.w3.org/2000/svg" viewBox="0 0 32 32">
  <path d="M27,26.5c0,0.4-0.1,0.8-0.2,1.1c-0.1,0.3-0.3,0.6-0.5,0.8s-0.5,0.4-0.8,0.5c-0.3,0.1-0.7,0.2-1.1,0.2
    c-0.4,0-0.7-0.1-1-0.2c-0.3-0.1-0.6-0.3-0.8-0.5c-0.2-0.2-0.4-0.5-0.5-0.8c-0.1-0.3-0.2-0.7-0.2-1.1s0.1-0.8,0.2-1.1s0.3-0.6,0.5-0.8
    s0.5-0.4,0.8-0.5c0.3-0.1,0.7-0.2,1-0.2s0.8,0.1,1.1,0.2s0.6,0.3,0.8,0.5s0.4,0.5,0.5,0.8C27,25.7,27,26.1,27,26.5z M27,6.4
    c0,0.4-0.1,0.8-0.2,1.1c-0.1,0.3-0.3,0.6-0.5,0.8c-0.2,0.2-0.5,0.4-0.8,0.5s-0.7,0.2-1.1,0.2s-0.7-0.1-1-0.2c-0.3-0.1-0.6-0.3-0.8-0.5
    s-0.4-0.5-0.5-0.8c-0.1-0.3-0.2-0.7-0.2-1.1s0.1-0.8,0.2-1.1c0.1-0.3,0.3-0.6,0.5-0.8s0.5-0.4,0.8-0.5c0.3-0.1,0.7-0.2,1-0.2
    s0.8,0.1,1.1,0.2c0.3,0.1,0.6,0.3,0.8,0.5c0.2,0.2,0.4,0.5,0.5,0.8C27,5.6,27,6,27,6.4z M29.9,8.5c-0.1-0.2-0.3-0.4-0.4-0.5
    s-0.4-0.2-0.6-0.3c-0.2-0.1-0.5-0.1-0.7-0.1c0.3-0.5,0.5-1,0.6-1.5s0.2-1.1,0.2-1.6c0-0.7-0.1-1.3-0.4-1.9c-0.2-0.6-0.6-1.1-1-1.6
    S26.8,0.4,26.2,0.2C25.6,0.1,25,0,24.4,0C23.7,0,23.1,0.1,22.5,0.3S21.4,0.7,21,1.1c-0.4,0.4-0.8,0.9-1,1.6c-0.2,0.6-0.4,1.2-0.4,1.9
    c0,0.5,0.1,1.1,0.2,1.6c0.1,0.5,0.3,1,0.6,1.5c-0.3,0-0.5,0-0.7,0.1s-0.4,0.2-0.6,0.3c-0.2,0.1-0.3,0.3-0.4,0.5
    c-0.1,0.2-0.1,0.4-0.1,0.6c0,0.3,0.1,0.6,0.3,0.8C19,10.1,19.2,10.3,19.5,10.4c-0.2,0.1-0.4,0.3-0.5,0.5s-0.2,0.5-0.2,0.8
    c0,0.2,0,0.4,0.1,0.6c0.1,0.2,0.2,0.3,0.4,0.5c0.2,0.1,0.3,0.2,0.6,0.3c0.2,0.1,0.4,0.1,0.7,0.1c-0.3,0.5-0.5,1-0.6,1.5
    c-0.1,0.5-0.2,1.1-0.2,1.6c0,0.7,0.1,1.3,0.4,1.9c0.2,0.6,0.6,1.2,1,1.6c0.4,0.4,1,0.8,1.6,1c0.6,0.2,1.2,0.4,1.9,0.4
    c0.7,0,1.3-0.1,1.9-0.4c0.6-0.2,1.1-0.6,1.6-1c0.4-0.4,0.8-1,1-1.6c0.2-0.6,0.4-1.2,0.4-1.9c0-0.5-0.1-1.1-0.2-1.6s-0.3-1-0.6-1.5
    c0.2,0,0.5,0,0.7-0.1c0.2-0.1,0.4-0.2,0.6-0.3c0.2-0.1,0.3-0.3,0.4-0.5c0.1-0.2,0.1-0.4,0.1-0.6c0-0.3-0.1-0.5-0.2-0.8
    c-0.1-0.2-0.3-0.4-0.5-0.5c0.3-0.1,0.5-0.3,0.7-0.5c0.2-0.2,0.3-0.5,0.3-0.8C30,8.9,30,8.7,29.9,8.5z" fill="#007AFF"/>
  <path d="M16,15.6c-0.5-0.1-0.9-0.3-1.3-0.5c-0.4-0.3-0.7-0.6-1-0.9c-0.3-0.4-0.5-0.8-0.6-1.3C13,12.4,12.9,11.9,12.9,11.4
    c0-0.9,0.2-1.8,0.5-2.6c0.3-0.8,0.7-1.6,1.3-2.3c0.5-0.7,1.1-1.3,1.8-1.9c0.7-0.6,1.4-1.1,2.2-1.6l1,3.2c-0.5,0.3-0.9,0.6-1.3,1
    c-0.4,0.3-0.7,0.7-1,1.1s-0.5,0.8-0.7,1.2c-0.2,0.4-0.3,0.9-0.3,1.3c0,0.2,0,0.5,0.1,0.7c0.1,0.2,0.1,0.4,0.3,0.6
    c0.1,0.2,0.3,0.3,0.5,0.4c0.2,0.1,0.4,0.2,0.7,0.2V15.6z M16,17.3v2.9c0.2,0,0.5-0.1,0.7-0.2c0.2-0.1,0.3-0.2,0.5-0.4
    c0.1-0.2,0.2-0.3,0.3-0.5c0.1-0.2,0.1-0.4,0.1-0.7c0-0.5-0.1-0.9-0.4-1.2c-0.3-0.3-0.7-0.5-1.2-0.5V17.3z M16.8,8.7l-1-3.2
    c0.7-0.2,1.5-0.3,2.2-0.3c0.8,0,1.5,0.1,2.2,0.3c0.7,0.2,1.4,0.4,2.1,0.7c0.7,0.3,1.4,0.6,2,0.9L23.4,10c-0.4-0.2-0.9-0.5-1.3-0.7
    c-0.5-0.2-0.9-0.3-1.4-0.5c-0.5-0.1-1-0.2-1.4-0.3C18.6,8.5,18.1,8.5,17.6,8.5C17.3,8.5,17.1,8.6,16.8,8.7z M22.4,15.2l0.9,3.1
    c-0.6,0.2-1.3,0.4-2,0.5c-0.7,0.1-1.4,0.2-2.1,0.2c-0.4,0-0.9,0-1.3-0.1c-0.4,0-0.9-0.1-1.3-0.2v-3c0.1,0,0.3,0,0.4,0s0.3,0,0.4,0
    c0.3,0,0.6,0,0.9,0c0.3,0,0.7-0.1,1-0.1c0.4-0.1,0.7-0.1,1.1-0.2C20.8,15.4,21.6,15.3,22.4,15.2z M25.2,10l-0.9-2.9
    c0.5,0.4,1,0.8,1.5,1.2c0.5,0.4,0.9,0.9,1.2,1.4c0.3,0.5,0.6,1.1,0.8,1.7s0.3,1.2,0.3,1.9c0,0.8-0.2,1.6-0.5,2.4
    c-0.3,0.8-0.8,1.5-1.3,2.1c-0.6,0.6-1.2,1.2-1.9,1.6c-0.7,0.5-1.5,0.8-2.3,1.1l-0.9-3.1c0.3-0.1,0.6-0.2,0.9-0.3
    c0.3-0.1,0.6-0.3,0.9-0.5c0.3-0.2,0.6-0.4,0.8-0.6c0.3-0.2,0.5-0.5,0.7-0.8c0.2-0.3,0.4-0.6,0.5-1c0.1-0.4,0.2-0.8,0.2-1.2
    c0-0.4-0.1-0.8-0.2-1.1c-0.1-0.3-0.3-0.7-0.5-1C25.8,10.6,25.5,10.3,25.2,10z" fill="#007AFF"/>
  <path d="M13.1,29.7v-6h-2v-1.2c0.6,0,1-0.1,1.4-0.3c0.4-0.2,0.7-0.4,0.9-0.7c0.2-0.3,0.3-0.6,0.4-0.9h1.2v9.1H13.1z M19.1,23.9
    c0-0.4,0.1-0.8,0.2-1.2c0.1-0.4,0.3-0.7,0.6-1s0.6-0.5,0.9-0.7s0.8-0.2,1.3-0.2c0.5,0,0.9,0.1,1.3,0.2s0.7,0.4,0.9,0.7
    c0.3,0.3,0.4,0.6,0.6,1c0.1,0.4,0.2,0.8,0.2,1.2v1.7c0,0.4-0.1,0.8-0.2,1.2s-0.3,0.7-0.6,1c-0.3,0.3-0.6,0.5-0.9,0.7s-0.8,0.2-1.3,0.2
    c-0.5,0-0.9-0.1-1.3-0.2s-0.7-0.4-0.9-0.7c-0.3-0.3-0.4-0.6-0.6-1c-0.1-0.4-0.2-0.8-0.2-1.2L19.1,23.9L19.1,23.9z M21,25.6
    c0,0.4,0.1,0.7,0.3,1s0.5,0.4,0.8,0.4c0.3,0,0.6-0.1,0.8-0.4s0.3-0.6,0.3-1v-1.7c0-0.4-0.1-0.7-0.3-1c-0.2-0.2-0.5-0.4-0.8-0.4
    c-0.3,0-0.6,0.1-0.8,0.4c-0.2,0.2-0.3,0.6-0.3,1V25.6L21,25.6z" fill="#007AFF"/>
</svg>
