<?xml version="1.0" encoding="UTF-8"?>
<svg width="256px" height="264px" viewBox="0 0 256 264" version="1.1" xmlns="http://www.w3.org/2000/svg" xmlns:xlink="http://www.w3.org/1999/xlink" preserveAspectRatio="xMidYMid">
    <g>
        <path d="M255.855641,59.5790639 C255.950565,59.7759957 256,59.9869207 256,60.2043923 L256,203.105747 C256,203.323219 255.950565,203.534144 255.855641,203.731076 C255.808056,203.828135 255.734595,203.919743 255.652081,204.001195 C255.591374,204.07 255.52304,204.129645 255.446398,204.178155 L205.260965,233.543422 L205.257563,233.543422 L132.970868,274.348687 L132.84318,274.420944 C132.819036,274.432075 132.797493,274.447937 132.772326,274.456467 C132.700068,274.483739 132.624453,274.499602 132.54883,274.512864 C132.473216,274.526126 132.397602,274.537256 132.321987,274.544761 C132.249729,274.549666 132.177472,274.554571 132.108722,274.554571 L132.07807,274.554571 C131.985437,274.554571 131.894858,274.544761 131.806889,274.529923 C131.753949,274.519089 131.701009,274.506852 131.648069,274.494615 C131.598337,274.480328 131.546413,274.466041 131.496681,274.44833 C131.439461,274.428473 131.386522,274.405308 131.33456,274.380094 L131.302883,274.361261 L59.0141825,233.543422 L59.0107797,233.543422 L8.83423568,204.174274 C8.75861442,204.129645 8.69129208,204.07 8.6305877,204.001195 L8.6237848,203.994714 C8.54113428,203.911188 8.46445687,203.819581 8.4156674,203.720436 C8.32088231,203.529752 8.26748876,203.317803 8.26748876,203.105747 L8.26748876,60.2043923 C8.26748876,60.0018363 8.31389085,59.8090133 8.39056825,59.6289048 C8.41468767,59.5790639 8.44579818,59.5326311 8.47691118,59.4827902 C8.51500525,59.4261709 8.55512003,59.3729573 8.6003545,59.3197437 C8.66767684,59.2461666 8.74435175,59.1829003 8.82102416,59.1281924 L59.0141825,29.7663291 L59.0175853,29.7663291 L131.304032,11.6539077 L131.33456,11.6470165 L131.384292,11.6332309 C131.429945,11.6264509 131.478653,11.6128599 131.527361,11.6060799 C131.589092,11.5993 131.650824,11.5925201 131.712556,11.5891301 C131.759237,11.5857401 131.808945,11.5789602 131.855626,11.5789602 L131.993961,11.5789602 C132.052156,11.5789602 132.107327,11.5857401 132.163521,11.5891301 C132.225253,11.5925201 132.286984,11.5993 132.348716,11.6060799 C132.397424,11.6128599 132.446132,11.6264509 132.491784,11.6332309 L132.543724,11.6470165 L204.824057,29.7629391 L204.827459,29.7629391 L255.020694,59.1176001 C255.110249,59.1774949 255.187932,59.2478943 255.256683,59.3231337 C255.290711,59.3814597 255.332082,59.4329645 255.357249,59.497731 C255.600575,59.4731197 255.762359,59.5156791 255.855641,59.5790639 Z" fill="#FF2D20"></path>
        <path d="M248.4682,63.9052996 L204.833622,86.2911796 L204.833622,166.227661 L248.4682,143.353669 L248.4682,63.9052996 Z" fill="#FFFFFF"></path>
        <path d="M130.740264,21.1039445 L71.6100817,40.0986432 L71.6100817,79.3084759 L59.0175853,73.3134114 L59.0175853,39.2387682 L130.740264,21.1039445 Z" fill="#FFFFFF"></path>
        <path d="M71.6100817,79.3084759 L71.6100817,119.189959 L114.563853,140.878753 L127.643101,135.135001 L84.6893299,113.44621 L84.6893299,74.9094287 L130.740264,96.5948177 L130.740264,136.47531 L71.6100817,167.675044 L59.0175853,161.680972 L59.0175853,73.3134114 L71.6100817,79.3084759 Z" fill="#FFFFFF"></path>
        <path d="M177.226597,87.7510938 L190.305845,93.494853 L148.039456,114.538053 L148.039456,193.565228 L130.736862,204.258979 L130.736862,120.575928 L177.226597,98.7053442 L177.226597,87.7510938 Z" fill="#FFFFFF"></path>
        <path d="M244.387476,56.4746962 L197.897742,34.6041126 L151.407183,56.4746962 L197.893312,78.3418742 L244.387476,56.4746962 Z M190.303467,93.4982429 L177.22422,87.7544837 L130.734484,109.625068 L130.734484,204.262631 L148.039456,193.568879 L148.039456,114.541704 L190.303467,93.4982429 Z" fill="#FFFFFF"></path>
    </g>
</svg>
