<?xml version="1.0" encoding="UTF-8" standalone="no"?>
<svg width="512" height="512" viewBox="0 0 512 512" fill="none" xmlns="http://www.w3.org/2000/svg">
  <path d="M255.953 512C397.385 512 512 397.385 512 255.953C512 114.521 397.385 0 255.953 0C114.521 0 0 114.521 0 255.953C0 397.385 114.521 512 255.953 512Z" fill="#539E43"/>
  <path d="M222.383 139.711L145.813 183.251C142.649 185.087 140.578 188.475 140.578 192.181V279.261C140.578 282.966 142.649 286.354 145.813 288.19L222.383 331.73C225.547 333.566 229.472 333.566 232.636 331.73L309.207 288.19C312.371 286.354 314.442 282.966 314.442 279.261V192.181C314.442 188.475 312.371 185.087 309.207 183.251L232.636 139.711C229.472 137.875 225.547 137.875 222.383 139.711Z" fill="white"/>
</svg>
