<?xml version="1.0" encoding="UTF-8"?>
<svg xmlns="http://www.w3.org/2000/svg" viewBox="0 0 48 48" width="48px" height="48px">
  <path fill="#5C6BC0" d="M42,37c0,2.8-2.2,5-5,5H11c-2.8,0-5-2.2-5-5V11c0-2.8,2.2-5,5-5h26c2.8,0,5,2.2,5,5V37z"/>
  <polygon fill="#FFF" points="33.6,24.4 33.6,25.9 35.2,25.9 35.2,27.1 33.6,27.1 33.6,31 32.3,31 32.3,21 36.7,21 36.7,22.2 33.6,22.2 33.6,24.4"/>
  <polygon fill="#FFF" points="30.9,24.4 30.9,31 29.7,31 29.7,22.2 27.9,22.2 27.9,21 32.7,21 32.7,22.2 30.9,22.2 30.9,24.4"/>
  <path fill="#FFF" d="M24.5,21.4c-0.9-0.6-2-1-3.1-1c-3.1,0-5.7,2.5-5.7,5.7c0,3.1,2.5,5.7,5.7,5.7c1.1,0,2.2-0.3,3.1-1l-1.2-1.9c-0.6,0.4-1.3,0.6-1.9,0.6c-1.9,0-3.4-1.5-3.4-3.4s1.5-3.4,3.4-3.4c0.7,0,1.3,0.2,1.9,0.6L24.5,21.4z"/>
  <path fill="#FFF" d="M16.1,21.9c-0.3-0.5-0.8-0.8-1.4-0.8c-0.8,0-1.4,0.6-1.4,1.4c0,0.5,0.3,1,0.7,1.2C12.8,24,12,25.2,12,26.6c0,2,1.3,3.7,3.1,4.2l0.4-1.3c-1.2-0.3-2.1-1.5-2.1-2.9c0-1.3,0.9-2.5,2.1-2.9c0.8,0.3,1.4,1.1,1.4,2c0,1.1-0.7,2-1.8,2.2l0.4,1.3c1.8-0.4,3.2-2,3.2-4C18.7,23.8,17.6,22.2,16.1,21.9z M14.7,24c-0.3,0-0.5-0.2-0.5-0.5c0-0.3,0.2-0.5,0.5-0.5s0.5,0.2,0.5,0.5C15.2,23.8,15,24,14.7,24z"/>
</svg>
