<?xml version="1.0" encoding="UTF-8"?>
<svg xmlns="http://www.w3.org/2000/svg" xmlns:xlink="http://www.w3.org/1999/xlink" width="256px" height="255px" viewBox="0 0 256 255" version="1.1" preserveAspectRatio="xMidYMid">
    <g>
        <path d="M18.1239675,127.500488 C18.1239675,170.795707 43.284807,208.211252 79.7700499,225.191 L32.5523727,82.822668 C23.1396328,96.5451321 18.1239675,111.435523 18.1239675,127.500488" fill="#464342"></path>
        <path d="M203.810137,122.05389 C203.810137,105.466445 196.760544,93.8538568 190.538951,84.8503553 C182.43058,73.7442132 174.809041,64.7407117 174.809041,54.0168472 C174.809041,42.1498143 183.608655,31.1111111 196.271142,31.1111111 C196.781614,31.1111111 197.258807,31.1838213 197.75826,31.2311407 C177.048607,11.9395554 149.20835,0 118.27669,0 C77.0901858,0 41.3995441,19.0596467 19.8465228,48.6296433 C22.6431001,48.739825 25.2602617,48.7943891 27.5815856,48.7943891 C41.8602908,48.7943891 64.4417038,47.1462688 64.4417038,47.1462688 C71.8815371,46.7847295 72.6042534,57.7054018 65.1703968,58.4281182 C65.1703968,58.4281182 57.6703968,59.0490325 49.5064344,59.410572 L98.7371194,207.139122 L126.690325,123.380344 L106.444425,59.410572 C99.0045916,59.0490325 91.8686925,58.4281182 91.8686925,58.4281182 C84.4288592,58.0665789 85.1456986,46.7807526 92.5855319,47.1462688 C92.5855319,47.1462688 115.572459,48.7943891 128.706417,48.7943891 C142.98917,48.7943891 165.570583,47.1462688 165.570583,47.1462688 C172.910417,46.7847295 173.633133,57.7054018 166.203199,58.4281182 C166.203199,58.4281182 158.699222,59.0490325 150.5313,59.410572 L199.451575,206.048435 L212.690949,156.969071 C217.915663,139.441967 203.810137,122.05389 203.810137,122.05389" fill="#464342"></path>
        <path d="M119.828437,137.960697 L80.183,249.184573 C93.616955,253.175913 107.876026,255.181483 122.697861,255.181483 C140.102288,255.181483 156.68681,251.858481 171.733129,245.859016 C171.340498,245.253702 170.963684,244.608619 170.644359,243.899782 L119.828437,137.960697" fill="#464342"></path>
        <path d="M216.416058,59.2329694 C216.909488,63.2993212 217.190148,67.6293173 217.190148,72.201336 C217.190148,90.2243164 213.871122,110.510872 203.810137,135.261394 L162.879895,248.225409 C204.123724,226.334037 233.884714,181.099097 233.884714,127.500488 C233.884714,99.7655575 227.445686,73.7909887 216.416058,59.2329694" fill="#464342"></path>
        <path d="M118.27669,143.996403 C105.417891,143.996403 95.2368783,133.8154 95.2368783,121.040427 C95.2368783,108.265454 105.417891,98.0844506 118.27669,98.0844506 C131.111559,98.0844506 141.29661,108.265454 141.29661,121.040427 C141.29661,133.8154 131.111559,143.996403 118.27669,143.996403" fill="#464342"></path>
    </g>
</svg>
