<?xml version="1.0" encoding="UTF-8" standalone="no"?>
<svg width="32px" height="32px" viewBox="0 0 32 32" version="1.1" xmlns="http://www.w3.org/2000/svg" xmlns:xlink="http://www.w3.org/1999/xlink">
    <title>GTIT Logo</title>
    <g id="Logo" stroke="none" stroke-width="1" fill="none" fill-rule="evenodd">
        <path d="M16,2 C8.268,2 2,8.268 2,16 C2,23.732 8.268,30 16,30 C23.732,30 30,23.732 30,16 C30,8.268 23.732,2 16,2" fill="#0066CC"></path>
        <path d="M9,11 L23,11 L23,13 L11,13 L11,21 L9,21 L9,11 Z M13,15 L23,15 L23,17 L15,17 L15,21 L13,21 L13,15 Z M17,19 L23,19 L23,21 L17,21 L17,19 Z" fill="#FFFFFF"></path>
    </g>
</svg>
